<?xml version="1.0" encoding="iso-8859-1"?>
<!-- Generator: Adobe Illustrator 17.1.0, SVG Export Plug-In . SVG Version: 6.00 Build 0)  -->
<!DOCTYPE svg PUBLIC "-//W3C//DTD SVG 1.1//EN" "http://www.w3.org/Graphics/SVG/1.1/DTD/svg11.dtd">
<svg xmlns="http://www.w3.org/2000/svg" xmlns:xlink="http://www.w3.org/1999/xlink" version="1.1" id="Capa_1" x="0px" y="0px" viewBox="0 0 408.393 408.393" style="enable-background:new 0 0 408.393 408.393;" xml:space="preserve" width="512px" height="512px">
<g>
	<path d="M390.893,111.329h-81.563c10.849-5.661,23.918-14.319,28.964-27.537c5.909-14.472,0.967-31.007-11.524-38.535   c-4.558-2.838-9.771-4.277-15.499-4.277c-12.692,0-26.983,7.452-39.345,18.002c0.141-2.452,0.157-4.927-0.008-7.415   c-0.963-19.226-11.57-34.058-25.793-36.075c-10.059-1.462-20.008,2.647-28.275,11.672c-5.342,5.83-9.926,13.717-13.391,22.479   c-3.698-8.477-8.443-16.137-13.855-21.862c-7.505-7.938-16.093-12.133-24.836-12.133c-1.621,0-3.262,0.146-4.846,0.427   c-14.222,2.463-24.17,17.536-24.209,36.67c-0.04,2.197,0.056,4.391,0.264,6.57c-12.585-10.032-27.002-17.096-39.718-17.096   c-6.242,0-11.823,1.622-16.592,4.821c-12.374,8.017-16.602,24.497-9.858,38.419c5.431,11.972,17.712,19.834,29.971,25.871H17.5   c-9.649,0-17.5,7.851-17.5,17.5v29.133c0,9.114,7.006,16.614,15.913,17.42v204.31c0,7.444,6.056,13.5,13.5,13.5h350.899   c7.444,0,13.5-6.056,13.5-13.5V175.198c8.261-1.397,14.58-8.583,14.58-17.236v-29.133   C408.393,119.179,400.542,111.329,390.893,111.329z M190.666,111.329L190.666,111.329l-0.001-2.021h0.001L190.666,111.329z    M311.27,55.979c2.934,0,5.42,0.663,7.598,2.028l0.129,0.079c6.862,4.109,8.128,13.442,5.388,20.091l-0.082,0.207   c-2.833,7.497-10.83,14.265-25.154,21.284c-22.941,8.863-38.175,9.822-43.674,9.822c-0.265,0-0.498-0.002-0.698-0.006   c0.439-2.009,1.609-5.56,4.649-11.385l0.09-0.18c0.074-0.151,0.157-0.304,0.232-0.455c0.495-0.896,0.993-1.832,1.493-2.797   C271.612,76.404,294.922,55.979,311.27,55.979z M228.907,37.296c4.314-4.709,8.755-7.097,13.197-7.097   c0.616,0,1.246,0.046,1.892,0.14c6.812,0.967,12.375,10.437,12.941,22.028l0.008,0.139c0.687,10.187-2.463,22.512-8.894,35.014   c-0.55,0.981-1.072,1.959-1.565,2.935c-11.74,17.952-22.475,18.819-24.038,18.846l-0.412-0.428l-1.52,0.444   c-2.452-0.183-7.026-4.342-7.849-19.138l-0.005-0.067c0.133-2.806,0.082-5.708-0.136-8.665   C213.353,65.281,219.858,47.172,228.907,37.296z M151.711,52.827c0.008-9.908,4.053-20.637,11.8-21.979   c0.762-0.136,1.499-0.201,2.255-0.201c5.706,0,10.728,4.045,13.937,7.438c9.386,9.927,16.49,27.829,17.816,43.615   c-0.12,2.944-0.083,5.837,0.125,8.645c-0.354,13.295-4.022,18.506-6.629,18.932l-0.254-0.284l-1.649,0.312c-0.02,0-0.04,0-0.062,0   c-1.246,0-12.499-0.528-25.154-18.741c-0.109-0.183-0.22-0.379-0.33-0.565c-0.452-0.83-0.929-1.663-1.427-2.498   c-5.264-9.464-10.669-22.238-10.427-34.533L151.711,52.827z M84.439,79.201l-0.104-0.222c-3.01-6.155-2.143-15.085,4.518-19.372   l0.139-0.091c2.291-1.547,4.994-2.299,8.266-2.299c17.148,0,41.03,19.691,51.876,37.756c0.461,0.827,0.919,1.628,1.374,2.406   c0.078,0.145,0.164,0.291,0.24,0.436l0.104,0.19c3.267,5.774,4.642,9.375,5.214,11.472c-4.4-0.006-20.322-0.741-44.668-9.696   C100.919,94.922,88.484,88.206,84.439,79.201z M15,157.962v-29.133c0-1.355,1.145-2.5,2.5-2.5h373.393c1.355,0,2.5,1.145,2.5,2.5   v29.133c0,1.355-1.145,2.5-2.5,2.5h-10.58H29.413H17.5C16.145,160.462,15,159.317,15,157.962z M378.813,235.685l-59.86-60.224   h59.86V235.685z M30.913,314.331l63.475,63.86H30.913V314.331z M115.537,378.191l-84.624-85.137V175.462h266.89l81.01,81.501   v121.228H115.537z" fill="#D80027"/>
	<path d="M265.572,246.935c-11.889,0-20.698,7.802-25.883,13.205c-2.415-2.584-5.607-5.626-9.565-8.142   c0.047-1.186,0.046-2.406-0.021-3.672c-1.026-19.139-16.494-34.131-35.214-34.131c-11.89,0-20.699,7.803-25.883,13.206   c-5.176-5.539-13.868-13.206-26.185-13.206c-18.721,0-34.189,14.992-35.216,34.133c-0.618,11.591,3.856,19.831,7.276,25.021   c4.724,7.168,16.316,17.921,25.591,25.594c20.577,17.025,26.283,17.025,28.432,17.025c1.729,0,5.746-0.013,17.591-8.543   c5.187,7.12,15.946,17.048,24.66,24.258c20.578,17.025,26.283,17.025,28.432,17.025c2.176,0,7.957,0,28.428-16.996   c9.203-7.64,20.734-18.386,25.498-25.63c3.418-5.199,7.891-13.447,7.272-25.017C299.761,261.927,284.293,246.935,265.572,246.935z    M127.408,265.096c-3.68-5.584-5.122-10.36-4.823-15.967c0.59-10.991,9.668-19.934,20.237-19.934   c7.857,0,13.877,6.856,17.475,10.953c2.501,2.849,4.662,5.31,8.559,5.31c3.91,0,6.146-2.439,8.977-5.527   c3.681-4.015,9.84-10.735,17.058-10.735c9.873,0,18.44,7.806,20.006,17.793c-0.462-0.022-0.919-0.054-1.391-0.054   c-18.721,0-34.189,14.992-35.216,34.134c-0.257,4.825,0.375,9.061,1.44,12.747c-4.593,3.457-8.53,6.049-10.801,6.962   C161.244,297.614,133.738,274.703,127.408,265.096z M280.98,297.841c-6.563,9.981-33.63,32.564-41.369,35.677   c-7.684-3.164-35.189-26.075-41.521-35.682c-3.68-5.587-5.122-10.362-4.823-15.967c0.59-10.992,9.668-19.935,20.237-19.935   c7.858,0,13.878,6.856,17.476,10.953c2.501,2.849,4.662,5.31,8.559,5.31c3.91,0,6.146-2.438,8.976-5.526   c3.68-4.016,9.84-10.736,17.058-10.736c10.569,0,19.646,8.942,20.235,19.934C286.106,287.464,284.663,292.242,280.98,297.841z" fill="#D80027"/>
</g>
<g>
</g>
<g>
</g>
<g>
</g>
<g>
</g>
<g>
</g>
<g>
</g>
<g>
</g>
<g>
</g>
<g>
</g>
<g>
</g>
<g>
</g>
<g>
</g>
<g>
</g>
<g>
</g>
<g>
</g>
</svg>
