<?xml version="1.0" encoding="utf-8"?>
<!-- Svg Vector Icons : http://www.onlinewebfonts.com/icon -->
<!DOCTYPE svg PUBLIC "-//W3C//DTD SVG 1.1//EN" "http://www.w3.org/Graphics/SVG/1.1/DTD/svg11.dtd">
<svg version="1.1" xmlns="http://www.w3.org/2000/svg" xmlns:xlink="http://www.w3.org/1999/xlink" x="0px" y="0px" viewBox="0 0 1000 1000" enable-background="new 0 0 1000 1000" xml:space="preserve">
<metadata> Svg Vector Icons : http://www.onlinewebfonts.com/icon </metadata>
<g><path d="M45,426.6c-46.7,46.7-46.7,100.1,0,146.8l81.4,81.4V345.2L45,426.6z M230.2,126.4c-66,0-103.8,37.8-103.8,103.8v115.1l218.9-218.8L230.2,126.4L230.2,126.4z M126.4,769.8c0,66,37.8,103.8,103.8,103.8h115.1L126.4,654.8V769.8L126.4,769.8z M769.8,873.6c66,0,103.8-37.8,103.8-103.8V654.8L654.8,873.6H769.8z M426.6,955c46.7,46.7,100.1,46.7,146.8,0l81.4-81.4H345.2L426.6,955z M955,426.6l-81.4-81.4v309.5l81.4-81.4C1001.7,526.7,1001.7,473.3,955,426.6z M873.6,230.2c0-66-37.8-103.8-103.8-103.8H654.8l218.9,218.9L873.6,230.2L873.6,230.2z M573.4,45C526.7-1.6,473.3-1.6,426.6,45l-81.4,81.4h309.5L573.4,45z M381.6,475.9c-59.4-5.1-92.5-39.9-99.3-104.4c6.8-64.5,39.9-99.3,99.3-104.4c62.8,5.1,96.8,39.9,101.8,104.4C478.4,436.1,444.4,470.8,381.6,475.9z M381.6,409.7c22-1.7,33.9-14.4,35.6-38.2c-1.7-23.7-13.6-36.5-35.6-38.2c-20.4,1.7-31.4,14.4-33.1,38.2C350.2,395.3,361.3,408.1,381.6,409.7z M358.7,689.8l216.4-407.4c6.8-15.3,16.9-22,30.6-20.4c22,1.7,34.8,13.6,38.2,35.6c0,6.8-1.7,13.6-5.1,20.4L419.8,728l-2.5,2.5c-8.5,11.9-17.8,16.9-28,15.3c-20.4-3.4-32.3-13.6-35.6-30.6C353.6,703.4,355.3,694.9,358.7,689.8z M610.8,740.7c-61.1-3.4-94.2-36.5-99.3-99.3c6.8-64.5,39.9-100.1,99.3-106.9c61.1,5.1,95,40.7,101.8,106.9C707.5,704.2,673.6,737.3,610.8,740.7z M610.8,679.6c22-1.7,33.9-14.4,35.6-38.2c-1.7-25.5-13.6-39-35.6-40.7c-20.4,1.7-31.4,15.3-33.1,40.7C579.4,665.2,590.4,677.9,610.8,679.6z"/></g>
</svg>